<svg width="348" height="349" viewBox="0 0 348 349" fill="none" xmlns="http://www.w3.org/2000/svg">
  <circle cx="175" cy="174" r="172" fill="#000"/>
  <path d="M174.805.008c45.92 0 89.959 18.355 122.429 51.026s50.711 76.984 50.711 123.188c0 95.707-77.767 174.198-173.14 174.198a172.2 172.2 0 0 1-66.767-12.776 173.1 173.1 0 0 1-56.736-37.651 174.3 174.3 0 0 1-37.963-56.723A175.2 175.2 0 0 1 0 174.214c0-23.019 4.534-45.81 13.34-67.055a174.3 174.3 0 0 1 37.962-56.724 173.1 173.1 0 0 1 56.736-37.65A172.2 172.2 0 0 1 174.805.008m0 341.037c32.795 0 64.853-9.786 92.121-28.119s48.52-44.39 61.069-74.877a167.8 167.8 0 0 0 9.433-96.397c-6.399-32.364-22.193-62.092-45.383-85.424s-52.737-39.22-84.902-45.656a164.86 164.86 0 0 0-95.802 9.5c-30.297 12.63-56.192 34.017-74.41 61.455-18.217 27.439-27.94 59.697-27.936 92.695a167.4 167.4 0 0 0 12.522 63.909 166.6 166.6 0 0 0 35.932 54.184 165.4 165.4 0 0 0 53.843 36.166 164.6 164.6 0 0 0 63.513 12.612zM66.965 141.289H51.551l1.952 65.705H68.42zm9.042 65.705.24 14.768c.496 32.208 23.72 63.482 42.317 75.528v-35.429L96.541 234.79V134.654l39.564 47.234 38.636-47.234 38.636 47.234 39.612-47.234V234.5l-22.247 27.377v35.429c18.582-11.804 42.061-43.304 42.541-75.528l.256-14.768 1.712-65.705v-.74c0-55.608-45.245-98.235-100.51-98.235s-100.51 42.563-100.51 98.235v.74zm28.121-11.82 31.785 37.168 38.892-45.768 38.876 45.768 31.801-36.911v36.653l-22.262 27.377.24 22.884c-11.732 11.08-25.912 20.678-39.612 20.678h-18.102c-13.684 0-27.624-9.663-39.372-20.678l-.24-23.125-22.038-27.313zm40.348 65.704a24.4 24.4 0 0 1 9.043-2.222c7.106 0 10.771 3.946 21.286 3.946s14.18-3.946 21.03-3.946a24.4 24.4 0 0 1 9.091 2.239l2.689-7.376a37 37 0 0 0-11.732-2.706c-10.035 0-13.7 3.93-21.03 3.93s-11.203-3.93-21.286-3.93a38.5 38.5 0 0 0-11.732 2.706zm51.359 15.01-1.712-7.875a93 93 0 0 1-38.636 0l-1.712 7.875a110 110 0 0 0 42.06 0m100.319-68.894 1.968-65.705H282.71l-1.473 65.705z" fill="#fff"/>
</svg>
