<svg width="551" height="99" viewBox="0 0 551 99" fill="none" xmlns="http://www.w3.org/2000/svg">
  <path d="M43.04 24.869 21.054 55 0 24.869V2l20.833 29.983L43 2l22.167 29.983L86 2v22.869L64.946 55zM111 2v52H97V2zm24.289 24.105v27.658H121V2.01l42.629 29.272V2H178v53zM219.487 55C199.551 55 185 42.235 185 27.504S198.654 0 220.384 0c8.892 0 15.989 1.494 24.616 5.408V17.32c-11.217-4.545-17.162-6.226-24.473-6.226-12.308 0-21.414 7.916-21.414 16.376 0 8.228 8.158 16.376 21.19 16.376a51 51 0 0 0 11.318-1.254v-8.006h-18.049V23.857H245V50.09c-7.987 3.253-16.698 4.93-25.513 4.91m57.568-53c17.078 0 28.761 8.445 28.761 18.933 0 6.722-4.872 12.672-12.919 16.109l13.893 18.151L309 71l-14.425-9.59-16.194-21.429h-8.398v14.466H256V2.053zm1.768 26.828c8.318 0 13.059-3.286 13.059-7.895 0-4.778-4.691-7.824-13.059-7.824h-8.84v15.719zM328 2v52h-14V2zm28.88 0C378.137 2 391 15.509 391 28.004S378.087 54 356.88 54H339V2.009zm0 40.985c13.906 0 20.859-8.001 20.859-14.98s-6.824-14.981-20.859-14.981h-4.023v29.96zM439 2l-2.613 11.024h-23.621v9.314h20.999v11.024h-20.999v9.623H439V54h-40V2.009zm31.104 0c17.083 0 28.761 8.445 28.761 18.933 0 6.722-4.864 12.672-12.924 16.109l13.848 18.151L502 71l-14.421-9.59-16.199-21.43h-8.411v14.466H449V2.053zm1.768 26.828c8.321 0 13.014-3.286 13.014-7.895 0-4.778-4.693-7.824-13.014-7.824h-8.903v15.719zm54.089 2.751c-8.205-3.06-18.626-6.894-18.626-16.768C507.335 6.743 514.913 0 526.406 0c7.84 0 15.054 2.429 21.468 5.408V17.32c-5.251-2.508-14.963-6.662-21.023-6.662-3.652 0-5.433 1.725-5.433 4.154 0 3.762 5.696 5.248 11.756 7.596C540.256 25.227 551 29.381 551 38.864 551 47.954 541.46 55 529.34 55c-8.994 0-16.299-2.9-23.34-7.517V34.87c5.342 3.442 14.791 9.473 23.077 9.473 4.987 0 7.84-2.428 7.84-5.337 0-3.042-3.47-4.688-10.956-7.428M413.932 98.316v-19.24h-7.442v-1.935h17.122v1.936h-7.441v19.24zm-27.558-1.936h12.736v1.936h-14.974V77.141h14.52v1.936h-12.282v7.532h10.951v1.906h-10.951zm-25.497 1.936V77.141h2.239v19.24h11.858v1.935zm-23.259 0V77.141h2.239v19.24h11.858v1.935zm-11.307 0-2.541-5.657h-11.798l-2.541 5.657h-2.329l9.68-21.175h2.208l9.68 21.175zm-13.522-7.472h10.164l-5.082-11.374zM299.442 77.14h2.148l-7.139 21.176h-2.36l-6.201-18.06-6.232 18.06h-2.329l-7.14-21.175h2.3l6.11 18.21 6.323-18.21h2.087l6.232 18.301zm-63.729 19.24h12.736v1.936h-14.974V77.141h14.52v1.936h-12.282v7.532h10.951v1.906h-10.951zm-16.428-19.24h1.845v21.176h-2.148v-16.94l-8.319 14.248h-1.058l-8.319-14.157v16.85h-2.148V77.14h1.845l9.196 15.7zm-34.722 21.176V77.141h2.239v21.175zm-10.395 0h-2.45l-4.84-6.806c-.545.06-1.089.09-1.694.09h-5.688v6.716h-2.238V77.141h7.926c5.384 0 8.651 2.722 8.651 7.26 0 3.328-1.754 5.657-4.84 6.655zm-9.045-8.621c4.235 0 6.474-1.966 6.474-5.294 0-3.388-2.239-5.324-6.474-5.324h-5.627v10.618zM138.32 77.14c5.385 0 8.652 2.723 8.652 7.26 0 4.508-3.267 7.23-8.652 7.23h-5.687v6.686h-2.238V77.141zm-.06 12.525c4.235 0 6.473-1.937 6.473-5.264 0-3.388-2.238-5.324-6.473-5.324h-5.627v10.588z" fill="#fff"/>
</svg>
